<?xml version="1.0" encoding="UTF-8" standalone="no"?>
<!-- Created with Inkscape (http://www.inkscape.org/) -->

<svg
   width="800px"
   height="800px"
   viewBox="0 0 800 800"
   version="1.1"
   id="SVGRoot"
   sodipodi:docname="emppreendaico.svg"
   inkscape:version="1.2 (dc2aedaf03, 2022-05-15)"
   xmlns:inkscape="http://www.inkscape.org/namespaces/inkscape"
   xmlns:sodipodi="http://sodipodi.sourceforge.net/DTD/sodipodi-0.dtd"
   xmlns="http://www.w3.org/2000/svg"
   xmlns:svg="http://www.w3.org/2000/svg">
  <sodipodi:namedview
     id="namedview12801"
     pagecolor="#ffffff"
     bordercolor="#000000"
     borderopacity="0.25"
     inkscape:showpageshadow="2"
     inkscape:pageopacity="0.0"
     inkscape:pagecheckerboard="0"
     inkscape:deskcolor="#d1d1d1"
     inkscape:document-units="px"
     showgrid="false"
     inkscape:zoom="0.32567287"
     inkscape:cx="122.82264"
     inkscape:cy="270.2098"
     inkscape:window-width="1366"
     inkscape:window-height="697"
     inkscape:window-x="-8"
     inkscape:window-y="-8"
     inkscape:window-maximized="1"
     inkscape:current-layer="layer1" />
  <defs
     id="defs12796" />
  <g
     inkscape:label="Camada 1"
     inkscape:groupmode="layer"
     id="layer1">
    <path
       d="M 24.935285,558.3154 77.094579,505.20079 C 105.78198,475.98775 167.53764,411.47754 214.3294,361.84469 l 85.07594,-90.24144 136.84022,77.42066 c 75.26257,42.58048 139.08516,77.41978 141.82826,77.41978 6.88555,0 147.57279,-141.78266 147.57279,-148.72169 0,-3.07986 -7.41769,-8.58121 -16.48381,-12.22538 -12.75377,-5.12639 -6.83313,-6.73076 26.16425,-7.09003 l 42.64805,-0.46448 -57.30039,67.2157 C 689.15949,362.12644 648.4687,408.67432 630.25073,428.5975 L 597.12713,464.82144 449.83655,391.106 302.54577,317.39054 183.53522,452.50481 64.524679,587.61904 C 49.828012,580.30015 24.935285,558.3154 24.935285,558.3154 Z"
       style="fill:#3633d9;fill-opacity:1;stroke-width:7.32615"
       id="path11441"
       sodipodi:nodetypes="ccsccsssscsscccccc" />
  </g>
</svg>
