<?xml version="1.0" encoding="UTF-8" standalone="no"?>
<!-- Created with Inkscape (http://www.inkscape.org/) -->

<svg
   width="1920px"
   height="1080px"
   viewBox="0 0 1920 1080"
   version="1.1"
   id="SVGRoot"
   sodipodi:docname="Empreenda.svg"
   xml:space="preserve"
   inkscape:version="1.2 (dc2aedaf03, 2022-05-15)"
   xmlns:inkscape="http://www.inkscape.org/namespaces/inkscape"
   xmlns:sodipodi="http://sodipodi.sourceforge.net/DTD/sodipodi-0.dtd"
   xmlns="http://www.w3.org/2000/svg"
   xmlns:svg="http://www.w3.org/2000/svg"><sodipodi:namedview
     id="namedview9043"
     pagecolor="#ffffff"
     bordercolor="#000000"
     borderopacity="0.25"
     inkscape:showpageshadow="2"
     inkscape:pageopacity="0.0"
     inkscape:pagecheckerboard="0"
     inkscape:deskcolor="#d1d1d1"
     inkscape:document-units="px"
     showgrid="false"
     inkscape:zoom="0.32567287"
     inkscape:cx="945.73429"
     inkscape:cy="721.58298"
     inkscape:window-width="1366"
     inkscape:window-height="697"
     inkscape:window-x="-8"
     inkscape:window-y="-8"
     inkscape:window-maximized="1"
     inkscape:current-layer="layer1" /><defs
     id="defs9038" /><g
     inkscape:label="Camada 1"
     inkscape:groupmode="layer"
     id="layer1"><path
       d="m 70.818506,572.27317 c 0.99237,-3.36311 5.91903,-35.20348 10.94813,-70.75637 5.0291,-35.55289 9.99684,-68.17944 11.03943,-72.50344 1.88728,-7.82723 2.20256,-7.86182 71.667754,-7.86182 h 69.77214 l -10.38138,8.73535 c -9.9931,8.40862 -12.21352,8.73536 -59.36622,8.73536 h -48.98485 l -10.7847,14.66491 c -5.931594,8.0657 -10.784714,15.92752 -10.784714,17.47071 0,1.54319 21.620014,2.84077 48.044454,2.8835 l 48.04445,0.0777 -8.73535,6.8329 c -7.03058,5.49939 -14.33944,6.84806 -37.45101,6.91057 l -28.71566,0.0777 -11.70062,37.56203 -11.700624,37.56202 73.469334,1.74707 c 71.49732,1.70018 73.21851,1.91119 64.12467,7.86182 -8.17058,5.34649 -18.82836,6.11475 -84.82711,6.11475 -70.245984,0 -75.357274,-0.42419 -73.678124,-6.11475 z m 768.299434,-3.49414 c 0.98734,-5.28489 6.25476,-40.66308 11.70541,-78.61819 l 9.91026,-69.0093 69.97015,0.0175 69.97014,0.0175 -10.48241,8.59234 c -10.01333,8.20784 -12.68415,8.59796 -59.68162,8.71802 l -49.19919,0.12579 -11.29188,15.72364 -11.29184,15.72364 h 49.91158 49.91154 l -7.84662,7.86182 c -6.56828,6.581 -12.76567,8.14645 -38.04027,9.60889 l -30.19364,1.74707 -11.56593,34.54434 c -6.36126,18.9994 -10.72666,35.90231 -9.70092,37.56203 2.49132,4.03101 133.27464,3.89617 135.76914,-0.14012 1.0733,-1.73669 5.86636,-30.43233 10.65116,-63.76809 4.7848,-33.33572 9.5326,-64.14825 10.5507,-68.47225 1.8436,-7.8302 2.1283,-7.86133 70.7938,-7.73617 l 68.9428,0.12579 -10.4825,8.59234 c -10.0024,8.1989 -12.7223,8.59936 -59.4004,8.74594 l -48.918,0.15374 -11.4666,15.58737 -11.4667,15.58737 h 51.0438 51.0439 l -10.3814,8.73535 c -9.1842,7.72803 -13.6116,8.73536 -38.3941,8.73536 h -28.0127 l -12.2031,36.44204 c -6.7117,20.04314 -11.3061,37.33914 -10.2097,38.43556 1.0965,1.09643 24.8098,1.99352 52.6962,1.99352 h 50.7026 l 24.8769,-25.33253 c 13.6822,-13.93289 43.136,-44.70045 65.4529,-68.37239 l 40.5762,-43.03983 65.2647,36.92508 c 35.8958,20.30837 66.3354,36.92466 67.6437,36.92466 3.284,0 70.3835,-67.62195 70.3835,-70.93146 0,-1.46891 -3.5378,-4.09273 -7.8618,-5.83078 -6.0828,-2.44499 -3.259,-3.21018 12.4788,-3.38153 l 20.3406,-0.22153 -27.3289,32.05792 c -15.0309,17.63185 -34.438,39.83244 -43.1269,49.33462 l -15.798,17.27668 -70.2489,-35.15791 -70.249,-35.15792 -56.761,64.44152 -56.761,64.44151 H 989.33312 837.32279 Z m 648.98876,-69.0093 v -78.61819 l 21.8385,0.0349 21.8382,0.0349 45.4239,58.24322 c 24.9831,32.0338 47.4377,61.04937 49.8991,64.47904 3.8756,5.39992 2.7672,8.1265 -8.2683,20.34153 l -12.7437,14.10271 h -58.9938 -58.9938 z m 122.295,52.33421 c 0,-2.31907 -94.5991,-120.46998 -96.4559,-120.46998 -0.759,0 -1.3801,27.51637 -1.3801,61.14748 v 61.14749 h 48.918 c 26.9048,0 48.9179,-0.82123 48.918,-1.82499 z M 254.84269,514.76225 c -0.16583,-57.60592 -0.0403,-58.59602 9.41539,-74.25051 5.27089,-8.72634 10.38107,-15.77168 11.35596,-15.65634 0.97488,0.1153 14.93648,15.83898 31.02577,34.94142 16.0893,19.10243 30.38065,34.7317 31.75856,34.7317 1.3779,0 15.73033,-15.69045 31.89423,-34.86766 16.1639,-19.17721 30.1751,-34.88876 31.13599,-34.91451 0.96089,-0.0245 5.28489,6.14892 9.60889,13.72153 7.29933,12.78331 7.85937,17.96862 7.82768,72.47653 l -0.0349,58.70816 -9.46818,-19.21778 c -7.94142,-16.11883 -9.76711,-25.29941 -11.32183,-56.93233 l -1.85283,-37.71454 -27.75789,33.34686 c -15.26685,18.34079 -28.78816,33.34687 -30.04734,33.34687 -1.25919,0 -14.71214,-14.8914 -29.89545,-33.09204 l -27.60601,-33.09204 -1.85495,37.45972 c -1.65357,33.39288 -3.05786,39.73576 -12.93497,58.42457 l -11.08001,20.96485 z m 219.96288,-17.90429 v -75.70642 l 58.52687,0.0835 c 32.18979,0.0458 64.57521,1.48689 71.96762,3.20231 38.46935,8.92697 41.44524,48.93877 4.67604,62.87027 -5.40998,2.04963 -32.53326,3.72674 -60.27395,3.72674 h -50.43759 v 12.13855 c 0,9.96463 -17.88732,62.76296 -23.01556,67.93555 -0.79391,0.80072 -1.44343,-32.61201 -1.44343,-74.25051 z m 134.27487,-28.78509 c 7.07134,-7.07131 6.9705,-15.03582 -0.29211,-23.06075 -5.10738,-5.64373 -11.83934,-6.38987 -57.6532,-6.38987 h -51.87057 v 17.47071 17.4707 h 52.16254 c 42.76166,0 53.15212,-0.98957 57.65334,-5.49079 z m 202.18353,89.93624 c -8.08255,-7.04856 -21.57133,-24.60827 -29.97509,-39.0216 l -15.27954,-26.20607 -35.53643,-0.99576 -35.5364,-0.99579 v 13.28214 c 0,7.30517 -4.62516,25.04926 -10.27813,39.43132 l -10.27812,26.14922 -0.2043,-74.64015 -0.20431,-74.64015 62.02102,1.42355 c 65.57767,1.50517 79.90918,4.77842 88.12352,20.12703 9.28369,17.34673 -1.21366,38.55649 -22.57142,45.60519 l -12.08331,3.98786 19.34015,38.5632 c 10.63711,21.20976 18.84915,39.05424 18.24903,39.65439 -0.60015,0.60012 -7.70416,-4.67583 -15.78667,-11.72438 z m -10.9048,-90.22821 c 8.5959,-7.77919 8.05442,-17.11407 -1.37589,-23.71932 -6.11635,-4.28407 -17.9905,-5.43933 -55.90627,-5.43933 h -48.1405 v 17.47071 17.4707 h 49.51639 c 41.1721,0 50.59318,-0.97448 55.90627,-5.78276 z m 867.34683,39.85065 c 41.5499,-86.65423 41.4529,-86.48001 48.1995,-86.48001 4.6638,0 15.2982,18.02855 41.407,70.19629 35.5759,71.0842 39.6574,83.29028 15.1119,45.19348 l -13.5217,-20.98683 -42.3167,-0.0314 -42.3167,-0.0315 -14.6881,22.71193 c -8.0785,12.49155 -15.304,22.71192 -16.0567,22.71192 -0.7527,0 10.129,-23.97855 24.1814,-53.28566 z m 78.9673,-8.52532 c 0,-2.60443 -28.1442,-50.00156 -29.6908,-50.00156 -2.2765,0 -29.7097,44.58777 -29.7097,48.28806 0,2.84588 9.2051,4.12407 29.7002,4.12407 16.3351,0 29.7002,-1.08476 29.7003,-2.41057 z"
       style="fill:#3633d9;stroke-width:3.49414;fill-opacity:1"
       id="path9347" /></g></svg>
